<svg xmlns="http://www.w3.org/2000/svg" height="40" viewBox="0 -960 960 960" width="40"><path d="M788-658.667V-228q0 23.85-16.075 39.925Q755.85-172 732-172H228q-23.85 0-39.925-16.075Q172-204.15 172-228v-504q0-23.85 16.075-39.925Q204.15-788 228-788h430.667L788-658.667ZM764-648 648-764H228q-14 0-23 9t-9 23v504q0 14 9 23t23 9h504q14 0 23-9t9-23v-420ZM479.843-317.333q26.546 0 45.685-18.982 19.139-18.982 19.139-45.528t-18.982-45.685q-18.982-19.139-45.528-19.139t-45.685 18.982q-19.139 18.982-19.139 45.528t18.982 45.685q18.982 19.139 45.528 19.139ZM278.667-576.667H556v-104.666H278.667v104.666ZM196-648v452-568 116Z"/></svg>